<?xml version="1.0" standalone="no"?><!DOCTYPE svg PUBLIC "-//W3C//DTD SVG 1.1//EN" "http://www.w3.org/Graphics/SVG/1.1/DTD/svg11.dtd"><svg t="1701247334721" class="icon" viewBox="0 0 1024 1024" version="1.1" xmlns="http://www.w3.org/2000/svg" p-id="5036" xmlns:xlink="http://www.w3.org/1999/xlink" width="200" height="200"><path d="M202.54 399.76h39.08l-19.47-49.72z" fill="#31BC99" p-id="5037"></path><path d="M256.46 256.84c-75.64 0-136.96 61.32-136.96 136.96 0 75.64 61.32 136.96 136.96 136.96s136.96-61.32 136.96-136.96c0-75.64-61.32-136.96-136.96-136.96z m9.79 206.22l-15.81-40.57h-56.75l-15.81 40.57h-26.63l59.61-148.83h22.4l59.61 148.83h-26.62z m69.85 0h-24.45V314.24h24.45v148.82z" fill="#31BC99" p-id="5038"></path><path d="M911.73 355.67c0 4.83-1.45 9.45-4.2 13.36l-1.78 2.23-102.97 116.67c-3.87 4.47-9.08 7.03-14.72 7.25s-11.01-1.93-15.14-6.06c-4.28-4.28-6.73-10.33-6.73-16.61 0-4.88 1.43-9.53 4.13-13.46l1.9-2.42 69.26-78.45-309.02-0.03c-10.65 0-19.63-8.54-20.94-19.89l-0.16-2.92c0.06-11.38 7.99-20.96 18.51-22.36l2.73-0.17h357.97c13.24 0 21.16 11.62 21.16 22.86z m-0.01-103.06c-0.07 11.39-7.99 20.96-18.51 22.36l-2.72 0.18H532.52c-13.24 0-21.16-11.62-21.16-22.86 0-4.83 1.46-9.45 4.21-13.36l1.78-2.23L620.3 120.03c3.87-4.47 9.09-7.03 14.72-7.25 5.63-0.22 11.01 1.93 15.14 6.06 4.27 4.28 6.73 10.33 6.73 16.61 0 4.88-1.43 9.53-4.13 13.46l-1.9 2.42-69.26 78.45 309.02 0.03c10.65 0 19.63 8.54 20.94 19.89l0.16 2.91z" p-id="5039"></path><path d="M222.26 138.11c-74.62 2.76-134.8 64.63-134.8 139.89v518.83c0 77 63 140 140 140H746.3c77 0 140-63 140-140V611.68h-0.24c-1.59-13.9-13.27-24.7-27.44-24.7-14.18 0-25.86 10.8-27.44 24.7h-0.87v185.15c0 22.28-8.78 43.33-24.72 59.28s-36.99 24.72-59.28 24.72H227.46c-22.28 0-43.33-8.78-59.28-24.72s-24.72-36.99-24.72-59.28V278c0-22.28 8.78-43.33 24.72-59.28s37-24.72 59.28-24.72h174.01v-0.13c15.12-0.17 27.33-12.6 27.33-27.93s-12.21-27.76-27.33-27.93V138H222.26v0.11z" p-id="5040"></path><path d="M481.81 726.97c15.01 0 27.23-12.23 27.23-27.26V534.2c0-15.02-12.22-27.24-27.24-27.24s-27.24 12.22-27.24 27.24v165.51c-0.01 7.27 2.82 14.12 7.96 19.27 5.15 5.15 11.99 7.99 19.29 7.99zM265.14 684.68c15.02 0 27.24-12.22 27.24-27.24v-80.96c0-15.02-12.22-27.24-27.24-27.24-15.02 0-27.24 12.22-27.24 27.24v80.96c0.01 15.02 12.23 27.24 27.24 27.24zM592.78 684.7c15.01 0 27.22-12.23 27.23-27.26v-80.96c0-15.02-12.22-27.24-27.24-27.24s-27.24 12.22-27.24 27.24v80.96c-0.01 7.27 2.82 14.12 7.96 19.27 5.16 5.14 11.99 7.98 19.29 7.99zM709.04 706.15c15.01 0 27.22-12.23 27.24-27.26V555.03c0-15.02-12.22-27.24-27.24-27.24-15.02 0-27.24 12.22-27.24 27.24V678.9c-0.01 7.27 2.83 14.11 7.97 19.26 5.14 5.15 11.98 7.99 19.27 7.99zM370.83 706.13c15.02 0 27.24-12.22 27.24-27.24V555.03c0-15.02-12.22-27.24-27.24-27.24-15.02 0-27.24 12.22-27.24 27.24V678.9c0 15.01 12.22 27.23 27.24 27.23z" p-id="5041"></path></svg>